#!OML:ASF F:\VICON\USERDATA\INSTALL\rory3\rory3.ASF
:FULLY-SPECIFIED
:DEGREES
871
root -3.91704 16.3043 8.74505 15.6013 -6.33143 -3.93666
lowerback -0.108244 -1.79729 7.42647
upperback -4.29421 -2.16804 1.91266
thorax -4.61251 -1.32727 -2.07483
lowerneck -17.0132 -2.8062 -6.98729
upperneck 16.8081 -2.57759 2.62502
head 8.14749 -1.41054 1.71339
rclavicle -2.04748e-014 5.96354e-015
rhumerus -42.8799 1.67184 -85.1445
rradius 45.4227
rwrist 9.06371
rhand -25.5255 -56.33
rfingers 7.12502
rthumb 1.004 -86.3074
lclavicle -2.04748e-014 5.96354e-015
lhumerus -39.0355 -6.77446 80.1155
lradius 59.7398
lwrist -2.29756
lhand -34.5018 -46.9282
lfingers 7.12502
lthumb -7.66394 -17.087
rfemur -41.2257 7.29519 27.6175
rtibia 54.1329
rfoot -21.6886 -11.9111
rtoes -9.01444
lfemur -72.3629 16.6418 -5.34993
ltibia 128.96
lfoot -20.5671 -6.3529
ltoes -13.0959
872
root -3.90019 16.1611 8.72456 15.6033 -6.35361 -4.63305
lowerback 0.131933 -1.71188 8.12467
upperback -4.15161 -2.01281 2.11421
thorax -4.61027 -1.26805 -2.25456
lowerneck -16.8633 -2.82142 -6.99602
upperneck 16.2604 -2.58427 2.53654
head 7.9375 -1.41661 1.68392
rclavicle 1.06847e-014 -1.63003e-014
rhumerus -42.7222 1.38515 -84.8866
rradius 44.9469
rwrist 9.46982
rhand -25.8395 -54.7849
rfingers 7.12502
rthumb 0.700717 -84.7635
lclavicle 1.06847e-014 -1.63003e-014
lhumerus -38.6002 -6.31002 80.0256
lradius 59.8145
lwrist -3.22397
lhand -34.6481 -47.178
lfingers 7.12502
lthumb -7.80512 -17.3421
rfemur -42.403 7.69392 28.3456
rtibia 56.2108
rfoot -22.396 -12.463
rtoes -9.16157
lfemur -72.4514 16.4649 -4.66135
ltibia 128.246
lfoot -20.5619 -5.86667
ltoes -13.2647
873
root -3.88701 16.0326 8.70855 15.2699 -6.56397 -4.86199
lowerback 0.50171 -1.64358 8.18504
upperback -3.86808 -1.89376 2.21285
thorax -4.50858 -1.19786 -2.18742
lowerneck -16.858 -2.80565 -6.96899
upperneck 15.8407 -2.54846 2.44818
head 7.79361 -1.40075 1.65334
rclavicle -2.17669e-014 2.78299e-015
rhumerus -42.5551 1.17631 -84.6254
rradius 44.8719
rwrist 9.42515
rhand -25.3686 -54.5945
rfingers 7.12502
rthumb 1.15553 -84.5711
lclavicle -2.17669e-014 2.78299e-015
lhumerus -38.3083 -5.68706 79.9318
lradius 60.3175
lwrist -4.0787
lhand -34.6625 -47.2053
lfingers 7.12502
lthumb -7.81907 -17.3699
rfemur -43.1354 8.12607 28.5622
rtibia 58.1029
rfoot -23.1425 -12.8289
rtoes -8.80039
lfemur -72.0147 15.9837 -4.42762
ltibia 127.379
lfoot -20.3019 -5.68918
ltoes -11.3612
874
root -3.87784 15.9132 8.68088 14.7128 -6.79436 -4.52009
lowerback 0.964233 -1.6362 7.50866
upperback -3.36884 -1.88619 2.1876
thorax -4.21603 -1.14941 -1.83932
lowerneck -17.2575 -2.79258 -6.91485
upperneck 15.4642 -2.50575 2.4301
head 7.73444 -1.37073 1.63972
rclavicle 5.99336e-014 -2.78299e-015
rhumerus -41.894 0.950094 -84.4075
rradius 44.6476
rwrist 9.20244
rhand -25.0101 -54.8496
rfingers 7.12502
rthumb 1.50178 -84.8241
lclavicle 5.99336e-014 -2.78299e-015
lhumerus -37.6541 -5.01744 79.8563
lradius 60.9301
lwrist -4.24619
lhand -34.4868 -47.7113
lfingers 7.12502
lthumb -7.64947 -17.8697
rfemur -43.6635 8.50119 28.1876
rtibia 59.7841
rfoot -23.968 -13.041
rtoes -7.63987
lfemur -71.539 15.1865 -4.8592
ltibia 126.416
lfoot -19.8748 -5.23409
ltoes -9.08207
875
root -3.85627 15.8259 8.69071 14.438 -6.29605 -5.17473
lowerback 1.43692 -1.81225 8.29993
upperback -3.3604 -2.03586 2.4463
thorax -4.51702 -1.2536 -1.98303
lowerneck -17.1781 -2.6775 -7.00676
upperneck 15.4078 -2.34009 2.47794
head 7.69567 -1.29251 1.69066
rclavicle -2.2413e-014 -2.18663e-014
rhumerus -42.0431 1.02146 -84.1398
rradius 44.5139
rwrist 8.75129
rhand -24.6826 -54.361
rfingers 7.12502
rthumb 1.81809 -84.333
lclavicle -2.2413e-014 -2.18663e-014
lhumerus -37.8853 -4.34695 79.939
lradius 61.6977
lwrist -3.86557
lhand -34.1741 -48.2626
lfingers 7.12502
lthumb -7.3476 -18.4101
rfemur -43.7839 8.27342 28.9955
rtibia 60.9652
rfoot -24.8553 -13.3639
rtoes -7.291
lfemur -71.066 14.3075 -4.1194
ltibia 125.387
lfoot -19.8393 -4.31569
ltoes -9.875
876
root -3.83478 15.7762 8.7088 13.7157 -5.76015 -5.16716
lowerback 1.82632 -1.98818 8.55205
upperback -3.12638 -2.23272 2.41787
thorax -4.52541 -1.35352 -2.13143
lowerneck -16.5902 -2.67829 -7.12754
upperneck 14.8865 -2.39072 2.67894
head 7.42843 -1.30101 1.77373
rclavicle -4.59193e-014 2.42517e-014
rhumerus -42.1313 0.801688 -83.8206
rradius 44.5614
rwrist 8.41015
rhand -24.6788 -53.3397
rfingers 7.12502
rthumb 1.82183 -83.3117
lclavicle -4.59193e-014 2.42517e-014
lhumerus -37.9031 -3.87644 79.925
lradius 62.5803
lwrist -3.78663
lhand -33.7457 -48.8953
lfingers 7.12502
lthumb -6.93407 -19.0289
rfemur -43.3339 7.71489 29.1548
rtibia 61.8535
rfoot -25.5008 -13.7575
rtoes -7.68932
lfemur -69.9318 12.6135 -4.16645
ltibia 124.019
lfoot -19.6095 -2.88088
ltoes -11.8349
877
root -3.8183 15.7304 8.71631 13.1391 -5.41211 -4.92913
lowerback 2.12282 -2.07309 8.39735
upperback -2.93479 -2.33553 2.29141
thorax -4.50038 -1.39528 -2.16519
lowerneck -16.0728 -2.71233 -7.13443
upperneck 14.4169 -2.50907 2.88569
head 7.19392 -1.3361 1.8321
rclavicle 8.54774e-015 -3.89618e-014
rhumerus -42.2707 0.424278 -83.5333
rradius 44.9085
rwrist 8.22748
rhand -25.0601 -52.3536
rfingers 7.12502
rthumb 1.45353 -82.3284
lclavicle 8.54774e-015 -3.89618e-014
lhumerus -37.8375 -3.91293 80.0853
lradius 63.4582
lwrist -2.2658
lhand -33.4812 -48.0146
lfingers 7.12502
lthumb -6.67877 -18.14
rfemur -43.0703 7.40898 28.9963
rtibia 62.5119
rfoot -25.9125 -14.0408
rtoes -7.91926
lfemur -69.2171 11.3565 -4.48994
ltibia 122.772
lfoot -19.3348 -1.91844
ltoes -11.9461
878
root -3.80279 15.6915 8.72475 13.0019 -5.18637 -4.7999
lowerback 2.17208 -2.1152 8.24722
upperback -2.91822 -2.39576 2.23173
thorax -4.51198 -1.4212 -2.13877
lowerneck -16.2684 -2.62994 -7.08785
upperneck 14.7033 -2.43009 3.07466
head 7.31821 -1.28027 1.89527
rclavicle -5.30755e-014 4.8901e-014
rhumerus -42.4115 0.254645 -83.3054
rradius 45.2877
rwrist 8.16287
rhand -25.2298 -51.7094
rfingers 7.12502
rthumb 1.28965 -81.6852
lclavicle -5.30755e-014 4.8901e-014
lhumerus -37.8265 -3.86253 80.1832
lradius 64.4704
lwrist -1.25112
lhand -33.5804 -47.1948
lfingers 7.12502
lthumb -6.77452 -17.3232
rfemur -43.1892 7.23378 28.8603
rtibia 63.0071
rfoot -26.0856 -14.2369
rtoes -8.23408
lfemur -69.0413 10.6821 -4.75554
ltibia 121.695
lfoot -19.1077 -1.18703
ltoes -11.7951
879
root -3.78486 15.6724 8.74371 13.1299 -4.85146 -4.82938
lowerback 1.81622 -2.13672 8.3177
upperback -2.95864 -2.45829 2.21602
thorax -4.36264 -1.45133 -2.20248
lowerneck -16.5049 -2.55398 -7.1484
upperneck 15.1775 -2.36888 3.44826
head 7.51604 -1.223 2.03639
rclavicle 2.43014e-014 -5.1684e-015
rhumerus -42.5189 0.297579 -83.1131
rradius 45.542
rwrist 8.15154
rhand -25.4729 -51.1652
rfingers 7.12502
rthumb 1.05488 -81.1423
lclavicle 2.43014e-014 -5.1684e-015
lhumerus -37.9113 -3.81494 80.2236
lradius 65.6987
lwrist -0.968979
lhand -33.9293 -46.5195
lfingers 7.12502
lthumb -7.11136 -16.659
rfemur -43.4274 6.94183 28.8649
rtibia 63.2821
rfoot -26.1272 -14.4303
rtoes -8.517
lfemur -69.0557 10.1468 -4.82674
ltibia 120.673
lfoot -18.9924 -0.530621
ltoes -12.3778
880
root -3.7625 15.6708 8.76011 13.2633 -4.44019 -4.78738
lowerback 1.40673 -2.16322 8.35189
upperback -3.05055 -2.53225 2.18798
thorax -4.23713 -1.48833 -2.25933
lowerneck -16.2285 -2.63603 -7.41064
upperneck 15.323 -2.54337 3.99492
head 7.53602 -1.27401 2.24303
rclavicle 1.3418e-015 -7.95139e-015
rhumerus -42.5665 0.460014 -82.8975
rradius 45.5545
rwrist 8.33382
rhand -25.9509 -50.9271
rfingers 7.12502
rthumb 0.593139 -80.906
lclavicle 1.3418e-015 -7.95139e-015
lhumerus -38.059 -3.74985 80.2151
lradius 67.082
lwrist -1.26066
lhand -33.9794 -46.2531
lfingers 7.12502
lthumb -7.15973 -16.3942
rfemur -43.5794 6.5439 28.7788
rtibia 63.323
rfoot -26.2418 -14.4716
rtoes -8.59591
lfemur -69.1742 9.56308 -4.91886
ltibia 119.721
lfoot -18.8056 -0.109737
ltoes -12.672
881
root -3.73852 15.6876 8.77364 13.2115 -4.20088 -4.54823
lowerback 1.16097 -2.15527 8.15534
upperback -3.06975 -2.55751 2.0647
thorax -4.11518 -1.49373 -2.28697
lowerneck -15.9818 -2.86248 -7.79015
upperneck 15.4171 -2.91888 4.71738
head 7.56312 -1.4109 2.50435
rclavicle -2.82274e-014 6.16232e-015
rhumerus -42.4423 0.569586 -82.6819
rradius 45.351
rwrist 8.90393
rhand -26.0868 -51.1739
rfingers 7.12502
rthumb 0.461942 -81.1531
lclavicle -2.82274e-014 6.16232e-015
lhumerus -38.1172 -3.86278 80.1763
lradius 68.3523
lwrist -1.60088
lhand -33.5728 -46.1776
lfingers 7.12502
lthumb -6.76722 -16.3057
rfemur -43.3913 6.24597 28.4391
rtibia 63.1234
rfoot -26.2702 -14.3917
rtoes -8.74832
lfemur -69.0428 9.08155 -5.19968
ltibia 118.8
lfoot -18.4326 0.280771
ltoes -12.2729
882
root -3.71802 15.7224 8.79575 13.1332 -4.1187 -4.39269
lowerback 0.804638 -2.03765 8.00048
upperback -3.03455 -2.44911 1.92098
thorax -3.86287 -1.42902 -2.37216
lowerneck -15.7327 -2.83493 -7.92824
upperneck 15.5463 -2.95791 5.17225
head 7.57329 -1.39927 2.67659
rclavicle 1.24489e-014 -5.56597e-015
rhumerus -42.6691 0.802386 -82.4797
rradius 45.7677
rwrist 9.34722
rhand -25.6086 -52.4149
rfingers 7.12502
rthumb 0.923801 -82.3926
lclavicle 1.24489e-014 -5.56597e-015
lhumerus -38.209 -4.30508 80.1757
lradius 69.648
lwrist -2.25106
lhand -33.0803 -45.5786
lfingers 7.12502
lthumb -6.29173 -15.6921
rfemur -42.9661 6.25469 28.1338
rtibia 62.6475
rfoot -26.0923 -14.3988
rtoes -8.87091
lfemur -68.6921 9.04806 -5.32197
ltibia 117.961
lfoot -18.2088 0.702397
ltoes -12.8662
883
root -3.69847 15.767 8.8176 13.0959 -3.96511 -4.59466
lowerback 0.534002 -1.91035 8.15347
upperback -3.10281 -2.29993 1.90423
thorax -3.77391 -1.35873 -2.48996
lowerneck -15.3248 -2.89961 -8.15665
upperneck 15.7473 -3.1138 5.60057
head 7.58932 -1.45462 2.84322
rclavicle -2.14687e-014 -4.57205e-015
rhumerus -43.288 1.31723 -82.3055
rradius 46.6109
rwrist 9.41754
rhand -25.073 -54.4462
rfingers 7.12502
rthumb 1.44107 -84.4211
lclavicle -2.14687e-014 -4.57205e-015
lhumerus -38.6375 -4.78459 80.1845
lradius 71.2185
lwrist -3.41707
lhand -32.7218 -45.0139
lfingers 7.12502
lthumb -5.94558 -15.1173
rfemur -42.442 6.44643 28.2183
rtibia 61.886
rfoot -25.6687 -14.5383
rtoes -9.0453
lfemur -68.5192 9.47144 -4.89346
ltibia 117.324
lfoot -17.9896 0.742324
ltoes -13.112
884
root -3.67751 15.8314 8.84205 12.9124 -3.86251 -4.84365
lowerback 0.52649 -1.79465 8.30025
upperback -3.18132 -2.13838 1.88834
thorax -3.84263 -1.2874 -2.59359
lowerneck -15.006 -3.07735 -8.36618
upperneck 16.0109 -3.42085 5.99705
head 7.65333 -1.58354 2.97958
rclavicle 1.06847e-015 -1.27222e-014
rhumerus -43.962 1.76995 -82.1461
rradius 47.3921
rwrist 9.71926
rhand -25.0881 -55.3164
rfingers 7.12502
rthumb 1.42647 -85.2914
lclavicle 1.06847e-015 -1.27222e-014
lhumerus -39.2397 -5.28801 80.1401
lradius 72.9049
lwrist -4.57971
lhand -32.5763 -45.0675
lfingers 7.12502
lthumb -5.80518 -15.1671
rfemur -41.6116 6.70877 28.3618
rtibia 60.8451
rfoot -25.0797 -14.6542
rtoes -9.18951
lfemur -68.1182 10.0718 -4.32222
ltibia 116.724
lfoot -17.809 0.881167
ltoes -12.2952
